<svg height="18" viewBox="0 0 18 18" width="18" xmlns="http://www.w3.org/2000/svg" xmlns:xlink="http://www.w3.org/1999/xlink"><linearGradient id="a" gradientUnits="userSpaceOnUse" x1="9" x2="9" y1="16.236" y2="5.599"><stop offset="0" stop-color="#005ba1"/><stop offset=".775" stop-color="#0078d4"/></linearGradient><path d="m0 5.6h18a0 0 0 0 1 0 0v10.035a.6.6 0 0 1 -.6.6h-16.8a.6.6 0 0 1 -.6-.6v-10.035a0 0 0 0 1 0 0z" fill="url(#a)"/><rect fill="#5ea0ef" height="8.514" opacity=".6" rx=".6" width="15.527" x="1.309" y="6.657"/><path d="m.6 1.764h16.8a.6.6 0 0 1 .6.6v3.236a0 0 0 0 1 0 0h-18a0 0 0 0 1 0 0v-3.235a.6.6 0 0 1 .6-.601z" fill="#005ba1"/><g fill="#fff"><path d="m7.109 13.217-.321.32a.144.144 0 0 1 -.205 0l-2.325-2.332a.29.29 0 0 1 0-.41l.321-.32 2.531 2.537a.145.145 0 0 1 -.001.205zm3.653 0 .321.32a.144.144 0 0 0 .205 0l2.325-2.332a.29.29 0 0 0 0-.41l-.322-.32-2.53 2.537a.145.145 0 0 0 .001.205z" opacity=".8"/><path d="m6.831 8.433.32.321a.144.144 0 0 1 0 .205l-2.575 2.568-.32-.322a.289.289 0 0 1 0-.41l2.37-2.363a.145.145 0 0 1 .205.001zm4.207 0-.32.321a.144.144 0 0 0 0 .205l2.575 2.568.32-.321a.292.292 0 0 0 0-.411l-2.37-2.362a.144.144 0 0 0 -.205.001z"/><path d="m8.159 14.363-.513-.163a.105.105 0 0 1 -.067-.131l2.09-6.529a.1.1 0 0 1 .13-.067l.513.164a.1.1 0 0 1 .067.13l-2.09 6.533a.1.1 0 0 1 -.13.063z"/><path d="m3.166 3.847a.76.76 0 1 1 -.76-.76.76.76 0 0 1 .76.76zm1.634-.76a.76.76 0 1 0 .76.76.76.76 0 0 0 -.76-.76zm2.393 0a.76.76 0 1 0 .76.76.76.76 0 0 0 -.762-.76z"/></g></svg>